<svg width="1920" height="1080" viewBox="0 0 1920 1080" xmlns="http://www.w3.org/2000/svg"><rect width="1920" height="1080" fill="#ffffff"/><path d="M 0,1080 C 0,1080 0,540 0,540 C 52.51920051573653,620.7859675735161 105.03840103147306,701.5719351470323 159,695 C 212.96159896852694,688.4280648529677 268.36559638984437,594.4982269853873 317,529 C 365.63440361015563,463.5017730146127 407.49921340914943,426.4351569114186 445,469 C 482.50078659085057,511.5648430885814 515.6375499735578,633.7611453689387 563,609 C 610.3624500264422,584.2388546310613 671.9505866966196,412.5202616128267 727,377 C 782.0494133033804,341.4797383871733 830.560103239964,442.1578081797545 886,488 C 941.439896760036,533.8421918202455 1003.8090003435245,524.8485056681553 1053,559 C 1102.1909996564755,593.1514943318447 1138.2038953859378,670.4481691476243 1186,675 C 1233.7961046140622,679.5518308523757 1293.3754181127242,611.3588177413471 1340,620 C 1386.6245818872758,628.6411822586529 1420.294432163165,714.116559886987 1473,674 C 1525.705567836835,633.883440113013 1597.4468532346154,468.1749427107045 1647,423 C 1696.5531467653846,377.8250572892955 1723.918154898373,453.18366927019497 1769,493 C 1814.081845101627,532.816330729805 1876.8805271718934,537.0903802085157 1905,539 C 1933.1194728281066,540.9096197914843 1926.5597364140533,540.4548098957421 1920,540 C 1920,540 1920,1080 1920,1080 Z" fill="#118be8" opacity="0.3"/></svg>