<?xml version="1.0" standalone="no"?><svg xmlns="http://www.w3.org/2000/svg" viewBox="0 0 1440 320"><path fill="#0099ff" fill-opacity="0.9" d="M0,96L40,85.3C80,75,160,53,240,90.7C320,128,400,224,480,266.7C560,309,640,299,720,256C800,213,880,139,960,144C1040,149,1120,235,1200,234.7C1280,235,1360,149,1400,106.7L1440,64L1440,320L1400,320C1360,320,1280,320,1200,320C1120,320,1040,320,960,320C880,320,800,320,720,320C640,320,560,320,480,320C400,320,320,320,240,320C160,320,80,320,40,320L0,320Z"></path></svg>